<?xml version="1.0" encoding="utf-8"?>
<!-- Generator: Adobe Illustrator 23.0.5, SVG Export Plug-In . SVG Version: 6.00 Build 0)  -->
<svg version="1.1" id="Layer_1" xmlns="http://www.w3.org/2000/svg" xmlns:xlink="http://www.w3.org/1999/xlink" x="0px" y="0px"
	 viewBox="0 0 1600 1200" style="enable-background:new 0 0 1600 1200;" xml:space="preserve">
<style type="text/css">
	.st0{fill:#010130;}
	.st1{fill:url(#SVGID_1_);}
	.st2{fill:url(#SVGID_2_);}
	.st3{fill:url(#SVGID_3_);}
	.st4{fill:url(#SVGID_4_);}
	.st5{fill:url(#SVGID_5_);}
	.st6{fill:url(#SVGID_6_);}
	.st7{fill:url(#SVGID_7_);}
	.st8{fill:#FFFFFF;}
</style>
<rect class="st0" width="1600" height="1200"/>
<g>
	<g>
		<linearGradient id="SVGID_1_" gradientUnits="userSpaceOnUse" x1="691.6482" y1="574.6155" x2="872.8089" y2="405.3875">
			<stop  offset="1.331947e-07" style="stop-color:#8A1AFF"/>
			<stop  offset="0.8" style="stop-color:#0FFFFF"/>
		</linearGradient>
		<path class="st1" d="M800,317.5c-73.5,0-135.1,50.9-151.6,119.4c-2.8,11.7-4.3,23.9-4.3,36.5c0,13.6,1.8,26.9,5,39.5
			c17.5,67,78.4,116.4,150.8,116.4c8.1,0,16.1-0.6,23.9-1.8c26-4,49.9-14.4,70-29.7c37.6-28.4,62-73.6,62-124.4
			C955.9,387.3,886.1,317.5,800,317.5z M893.2,521.8c-10.2,19.6-26.3,35.5-46,45.4c-14.2,7.1-30.2,11.2-47.2,11.2
			c-58,0-105-47-105-105c0-2,0.1-4,0.2-5.9c1.3-22.8,9.8-43.6,23.3-60.2c19.3-23.7,48.6-38.9,81.6-38.9c58,0,105,47,105,105
			C905,490.9,900.7,507.3,893.2,521.8z"/>
		<linearGradient id="SVGID_2_" gradientUnits="userSpaceOnUse" x1="691.6482" y1="574.6155" x2="872.8089" y2="405.3875">
			<stop  offset="0" style="stop-color:#000000"/>
			<stop  offset="1" style="stop-color:#FFFFFF"/>
		</linearGradient>
		<path class="st2" d="M800,317.5c-73.5,0-135.1,50.9-151.6,119.4c-2.8,11.7-4.3,23.9-4.3,36.5c0,13.6,1.8,26.9,5,39.5
			c17.5,67,78.4,116.4,150.8,116.4c8.1,0,16.1-0.6,23.9-1.8c26-4,49.9-14.4,70-29.7c37.6-28.4,62-73.6,62-124.4
			C955.9,387.3,886.1,317.5,800,317.5z M893.2,521.8c-10.2,19.6-26.3,35.5-46,45.4c-14.2,7.1-30.2,11.2-47.2,11.2
			c-58,0-105-47-105-105c0-2,0.1-4,0.2-5.9c1.3-22.8,9.8-43.6,23.3-60.2c19.3-23.7,48.6-38.9,81.6-38.9c58,0,105,47,105,105
			C905,490.9,900.7,507.3,893.2,521.8z"/>
		<linearGradient id="SVGID_3_" gradientUnits="userSpaceOnUse" x1="711.3278" y1="573.2628" x2="811.4055" y2="479.7771">
			<stop  offset="0" style="stop-color:#000000"/>
			<stop  offset="1" style="stop-color:#FFFFFF"/>
		</linearGradient>
		<path class="st3" d="M893.2,521.8c-10.2,19.6-26.3,35.5-46,45.4c-1.3,22.8-9.8,43.6-23.3,60.2c26-4,49.9-14.4,70-29.7
			c2.8-11.7,4.3-23.9,4.3-36.5C898.3,547.7,896.5,534.4,893.2,521.8z M644.1,473.4c0,13.6,1.8,26.9,5,39.5
			c10.2-19.5,26.3-35.5,46-45.4c1.3-22.8,9.8-43.6,23.3-60.2c-26,4-49.9,14.4-70,29.6C645.6,448.6,644.1,460.8,644.1,473.4z"/>
		<linearGradient id="SVGID_4_" gradientUnits="userSpaceOnUse" x1="742.0273" y1="445.8719" x2="861.355" y2="455.6351">
			<stop  offset="1.331947e-07" style="stop-color:#8A1AFF"/>
			<stop  offset="0.8" style="stop-color:#0FFFFF"/>
		</linearGradient>
		<polygon class="st4" points="861.3,425 807.2,481.9 738.7,457.1 		"/>
		<linearGradient id="SVGID_5_" gradientUnits="userSpaceOnUse" x1="742.0273" y1="445.8719" x2="861.355" y2="455.6351">
			<stop  offset="0" style="stop-color:#000000"/>
			<stop  offset="1" style="stop-color:#FFFFFF"/>
		</linearGradient>
		<polygon class="st5" points="861.3,425 807.2,481.9 738.7,457.1 		"/>
		<g>
			<radialGradient id="SVGID_6_" cx="834.2169" cy="482.6255" r="45.0364" gradientUnits="userSpaceOnUse">
				<stop  offset="0" style="stop-color:#FF86FF"/>
				<stop  offset="1" style="stop-color:#FF1AFF"/>
			</radialGradient>
			<polygon class="st6" points="861.3,425 826.7,540.3 807.2,481.9 			"/>
		</g>
		<g>
			<linearGradient id="SVGID_7_" gradientUnits="userSpaceOnUse" x1="807.1555" y1="482.6255" x2="861.2783" y2="482.6255">
				<stop  offset="0" style="stop-color:#000000"/>
				<stop  offset="1" style="stop-color:#FFFFFF"/>
			</linearGradient>
			<polygon class="st7" points="861.3,425 826.7,540.3 807.2,481.9 			"/>
		</g>
	</g>
	<g>
		<g>
			<path class="st8" d="M361.1,720.7c-6.7-6.4-16.6-9.9-25.2-9.9c-21.2,0-34.1,16.1-34.1,36.5c0,16.3,9.5,33.1,34.1,33.1
				c7.8,0,14.6-1.7,22.4-7.9V755H333v-16.7h42.5V780c-9.8,11.2-22.1,17.8-39.5,17.8c-37.2,0-52.4-24.5-52.4-50.5
				c0-27.9,17.4-53.6,52.4-53.6c13.3,0,26.6,5.1,36.8,15.1L361.1,720.7z"/>
			<path class="st8" d="M477.2,795.6H455l-28.9-33.1h-18v33.1h-18.7v-99.2c15.7,0,31.4,0.1,47.1,0.1c23.3,0.1,35.7,15.7,35.7,32.8
				c0,13.6-6.2,27.3-25,31.1l30,33.8V795.6z M408.1,713.9v31.7h28.4c11.9,0,17-7.9,17-15.8s-5.2-15.8-17-15.8H408.1z"/>
			<path class="st8" d="M582.2,746.6c-0.3,25.6-16,51.2-50.8,51.2c-34.8,0-50.9-25-50.9-51.1c0-26,16.7-52.2,50.9-52.2
				C565.5,694.5,582.4,720.7,582.2,746.6z M498.8,747c0.4,16.3,9.2,33.7,32.5,33.7c23.3,0,32.1-17.5,32.4-33.8
				c0.3-16.7-9.1-35.4-32.4-35.4C508,711.5,498.4,730.3,498.8,747z"/>
			<path class="st8" d="M698.5,795.6h-15.8l-12.3-31.1l-10.5-31.3l-10.3,31.6l-12,30.8h-15.8l-36.4-99.1h20.9l23.3,71.5l24.1-71.5
				h12.2l24.8,71.5l22.6-71.5h20.9L698.5,795.6z"/>
			<path class="st8" d="M771.2,713.5h-31.4v-17c28.6,0,52.8,0,81.5,0v17h-31.4v82.1h-18.7V713.5z"/>
			<path class="st8" d="M900.1,795.7v-40h-48.7v40h-18.7v-99.1h18.7v41.7h48.7v-41.7h18.5v99.1H900.1z"/>
			<path class="st8" d="M1029.9,696.4h18.7v99.2h-11.6v0.1l-52.1-66.9v66.8h-18.7v-99.1h15.1l48.5,61.4V696.4z"/>
			<path class="st8" d="M1164.4,746.6c-0.3,25.6-16,51.2-50.8,51.2c-34.8,0-50.9-25-50.9-51.1c0-26,16.7-52.2,50.9-52.2
				C1147.7,694.5,1164.7,720.7,1164.4,746.6z M1081.1,747c0.4,16.3,9.2,33.7,32.5,33.7c23.3,0,32.1-17.5,32.4-33.8
				c0.3-16.7-9.1-35.4-32.4-35.4C1090.3,711.5,1080.7,730.3,1081.1,747z"/>
			<path class="st8" d="M1280.7,795.6h-15.8l-12.3-31.1l-10.5-31.3l-10.3,31.6l-12,30.8h-15.8l-36.4-99.1h20.9l23.3,71.5l24.1-71.5
				h12.2l24.8,71.5l22.6-71.5h20.9L1280.7,795.6z"/>
		</g>
		<g>
			<path class="st8" d="M609.6,845.1l-16.8,22.3h-1.9l-16.4-22.4v37.4h-9.7V831H576l16.1,22.1l16.1-22.1h11.1v51.5h-9.7V845.1z"/>
			<path class="st8" d="M726.3,882.4h-38.5c0-17.1,0-34.3,0-51.5h38.5v9.4h-28.9v11.8h27.9v9h-27.9v11.6h28.9V882.4z"/>
			<path class="st8" d="M838.6,856.2c0.2,13-7.7,26.2-25.7,26.2c-6.3,0-13.9,0-20.2,0V831c6.3,0,13.9,0,20.2,0
				C830.5,831,838.4,843.5,838.6,856.2z M802.3,873.1h10.6c11.7,0,16.3-8.5,16.1-16.9c-0.2-8-4.9-16-16.1-16h-10.6V873.1z"/>
			<path class="st8" d="M905.4,882.4V831h9.6v51.5H905.4z"/>
			<path class="st8" d="M1020.3,872.7h-26.9l-4.4,9.7h-10.5l23.1-51.5h10.6l23.1,51.5h-10.6L1020.3,872.7z M1006.8,841.8l-9.6,21.9
				h19.1L1006.8,841.8z"/>
		</g>
		<rect x="283.6" y="854.8" class="st8" width="247.7" height="3.9"/>
		<rect x="1068.7" y="854.8" class="st8" width="247.7" height="3.9"/>
	</g>
</g>
</svg>
