<?xml version="1.0" encoding="utf-8"?>
<!-- Generator: Adobe Illustrator 23.0.5, SVG Export Plug-In . SVG Version: 6.00 Build 0)  -->
<svg version="1.1" id="Layer_1" xmlns="http://www.w3.org/2000/svg" xmlns:xlink="http://www.w3.org/1999/xlink" x="0px" y="0px"
	 viewBox="0 0 888.5 210.4" style="enable-background:new 0 0 888.5 210.4;" xml:space="preserve">
<style type="text/css">
	.st0{fill:url(#SVGID_1_);}
	.st1{fill:url(#SVGID_2_);}
	.st2{fill:url(#SVGID_3_);}
	.st3{fill:url(#SVGID_4_);}
	.st4{fill:url(#SVGID_5_);}
	.st5{fill:url(#SVGID_6_);}
	.st6{fill:url(#SVGID_7_);}
	.st7{fill:#FFFFFF;}
</style>
<g>
	<g>
		<linearGradient id="SVGID_1_" gradientUnits="userSpaceOnUse" x1="73.4033" y1="154.137" x2="161.013" y2="72.298">
			<stop  offset="1.331947e-07" style="stop-color:#8A1AFF"/>
			<stop  offset="0.8" style="stop-color:#0FFFFF"/>
		</linearGradient>
		<path class="st0" d="M125.8,29.8c-35.6,0-65.4,24.6-73.3,57.7c-1.4,5.7-2.1,11.6-2.1,17.7c0,6.6,0.9,13,2.4,19.1
			c8.5,32.4,37.9,56.3,72.9,56.3c3.9,0,7.8-0.3,11.6-0.9c12.6-1.9,24.1-7,33.9-14.3c18.2-13.8,30-35.6,30-60.2
			C201.2,63.6,167.4,29.8,125.8,29.8z M170.9,128.6c-4.9,9.5-12.7,17.2-22.2,22c-6.9,3.5-14.6,5.4-22.8,5.4
			C97.8,156,75,133.2,75,105.2c0-1,0-1.9,0.1-2.9c0.6-11,4.7-21.1,11.3-29.1c9.3-11.5,23.5-18.8,39.4-18.8
			c28.1,0,50.8,22.7,50.8,50.8C176.6,113.6,174.5,121.6,170.9,128.6z"/>
		<linearGradient id="SVGID_2_" gradientUnits="userSpaceOnUse" x1="73.4033" y1="154.137" x2="161.013" y2="72.298">
			<stop  offset="0" style="stop-color:#000000"/>
			<stop  offset="1" style="stop-color:#FFFFFF"/>
		</linearGradient>
		<path class="st1" d="M125.8,29.8c-35.6,0-65.4,24.6-73.3,57.7c-1.4,5.7-2.1,11.6-2.1,17.7c0,6.6,0.9,13,2.4,19.1
			c8.5,32.4,37.9,56.3,72.9,56.3c3.9,0,7.8-0.3,11.6-0.9c12.6-1.9,24.1-7,33.9-14.3c18.2-13.8,30-35.6,30-60.2
			C201.2,63.6,167.4,29.8,125.8,29.8z M170.9,128.6c-4.9,9.5-12.7,17.2-22.2,22c-6.9,3.5-14.6,5.4-22.8,5.4
			C97.8,156,75,133.2,75,105.2c0-1,0-1.9,0.1-2.9c0.6-11,4.7-21.1,11.3-29.1c9.3-11.5,23.5-18.8,39.4-18.8
			c28.1,0,50.8,22.7,50.8,50.8C176.6,113.6,174.5,121.6,170.9,128.6z"/>
		<linearGradient id="SVGID_3_" gradientUnits="userSpaceOnUse" x1="82.9204" y1="153.4829" x2="131.3181" y2="108.273">
			<stop  offset="0" style="stop-color:#000000"/>
			<stop  offset="1" style="stop-color:#FFFFFF"/>
		</linearGradient>
		<path class="st2" d="M170.9,128.6c-4.9,9.5-12.7,17.2-22.2,22c-0.6,11-4.7,21.1-11.3,29.1c12.6-1.9,24.1-7,33.9-14.3
			c1.4-5.7,2.1-11.6,2.1-17.7C173.3,141.1,172.5,134.7,170.9,128.6z M50.4,105.2c0,6.6,0.9,13,2.4,19.1c4.9-9.4,12.7-17.2,22.2-22
			c0.6-11,4.7-21.1,11.3-29.1c-12.6,1.9-24.1,7-33.8,14.3C51.1,93.2,50.4,99.1,50.4,105.2z"/>
		<linearGradient id="SVGID_4_" gradientUnits="userSpaceOnUse" x1="97.7667" y1="91.8764" x2="155.4739" y2="96.5979">
			<stop  offset="1.331947e-07" style="stop-color:#8A1AFF"/>
			<stop  offset="0.8" style="stop-color:#0FFFFF"/>
		</linearGradient>
		<polygon class="st3" points="155.4,81.8 129.3,109.3 96.2,97.3 		"/>
		<linearGradient id="SVGID_5_" gradientUnits="userSpaceOnUse" x1="97.7667" y1="91.8764" x2="155.4739" y2="96.5979">
			<stop  offset="0" style="stop-color:#000000"/>
			<stop  offset="1" style="stop-color:#FFFFFF"/>
		</linearGradient>
		<polygon class="st4" points="155.4,81.8 129.3,109.3 96.2,97.3 		"/>
		<g>
			<radialGradient id="SVGID_6_" cx="142.3498" cy="109.6505" r="21.7797" gradientUnits="userSpaceOnUse">
				<stop  offset="0" style="stop-color:#FF86FF"/>
				<stop  offset="1" style="stop-color:#FF1AFF"/>
			</radialGradient>
			<polygon class="st5" points="155.4,81.8 138.7,137.5 129.3,109.3 			"/>
		</g>
		<g>
			<linearGradient id="SVGID_7_" gradientUnits="userSpaceOnUse" x1="129.2628" y1="109.6505" x2="155.4367" y2="109.6505">
				<stop  offset="0" style="stop-color:#000000"/>
				<stop  offset="1" style="stop-color:#FFFFFF"/>
			</linearGradient>
			<polygon class="st6" points="155.4,81.8 138.7,137.5 129.3,109.3 			"/>
		</g>
	</g>
	<g>
		<g>
			<path class="st7" d="M269.3,65.1c-4-3.8-9.9-5.9-15-5.9c-12.6,0-20.3,9.6-20.3,21.7c0,9.7,5.6,19.7,20.3,19.7
				c4.6,0,8.7-1,13.3-4.7V85.5h-15.1v-9.9h25.3v24.9C272,107,264.7,111,254.3,111c-22.2,0-31.2-14.6-31.2-30.1
				c0-16.6,10.4-31.9,31.2-31.9c7.9,0,15.8,3,21.9,9L269.3,65.1z"/>
			<path class="st7" d="M338.4,109.6h-13.2L308,89.9h-10.7v19.7h-11.1V50.6c9.4,0,18.7,0.1,28.1,0.1c13.9,0.1,21.2,9.4,21.2,19.5
				c0,8.1-3.7,16.3-14.9,18.5l17.9,20.1V109.6z M297.3,61v18.9h16.9c7.1,0,10.1-4.7,10.1-9.4s-3.1-9.4-10.1-9.4H297.3z"/>
			<path class="st7" d="M400.9,80.5c-0.2,15.2-9.5,30.5-30.2,30.5s-30.3-14.9-30.3-30.4s9.9-31.1,30.3-31.1
				C391,49.5,401.1,65.1,400.9,80.5z M351.3,80.8c0.3,9.7,5.5,20.1,19.4,20.1s19.1-10.4,19.3-20.1c0.2-9.9-5.4-21.1-19.3-21.1
				S351,70.8,351.3,80.8z"/>
			<path class="st7" d="M470.2,109.6h-9.4l-7.3-18.5l-6.2-18.6L441,91.3l-7.2,18.4h-9.4l-21.7-59h12.5l13.9,42.5l14.3-42.5h7.2
				l14.7,42.5l13.5-42.5h12.5L470.2,109.6z"/>
			<path class="st7" d="M513.5,60.8h-18.7V50.7c17,0,31.4,0,48.5,0v10.1h-18.7v48.9h-11.1V60.8z"/>
			<path class="st7" d="M590.2,109.7V85.9h-29v23.8h-11.1v-59h11.1v24.9h29V50.8h11v59H590.2z"/>
			<path class="st7" d="M667.5,50.6h11.1v59.1h-6.9v0.1l-31-39.9v39.8h-11.1v-59h9l28.9,36.6V50.6z"/>
			<path class="st7" d="M747.6,80.5c-0.2,15.2-9.5,30.5-30.2,30.5c-20.7,0-30.3-14.9-30.3-30.4s9.9-31.1,30.3-31.1
				C737.7,49.5,747.8,65.1,747.6,80.5z M698,80.8c0.3,9.7,5.5,20.1,19.4,20.1c13.9,0,19.1-10.4,19.3-20.1
				c0.2-9.9-5.4-21.1-19.3-21.1C703.5,59.6,697.7,70.8,698,80.8z"/>
			<path class="st7" d="M816.9,109.6h-9.4l-7.3-18.5l-6.2-18.6l-6.2,18.8l-7.2,18.4h-9.4l-21.7-59h12.5l13.9,42.5l14.3-42.5h7.2
				l14.7,42.5l13.5-42.5h12.5L816.9,109.6z"/>
		</g>
		<g>
			<path class="st7" d="M417.2,139.2l-10,13.3h-1.1l-9.8-13.3v22.3h-5.8v-30.6h6.7l9.6,13.2l9.6-13.2h6.6v30.6h-5.8V139.2z"/>
			<path class="st7" d="M486.7,161.4h-22.9c0-10.2,0-20.4,0-30.6h22.9v5.6h-17.2v7h16.6v5.4h-16.6v6.9h17.2V161.4z"/>
			<path class="st7" d="M553.6,145.8c0.1,7.7-4.6,15.6-15.3,15.6c-3.8,0-8.3,0-12,0v-30.6c3.8,0,8.3,0,12,0
				C548.8,130.7,553.5,138.2,553.6,145.8z M532,155.8h6.3c7,0,9.7-5.1,9.6-10.1c-0.1-4.8-2.9-9.5-9.6-9.5H532V155.8z"/>
			<path class="st7" d="M593.4,161.4v-30.6h5.7v30.6H593.4z"/>
			<path class="st7" d="M661.8,155.6h-16l-2.6,5.8h-6.3l13.7-30.6h6.3l13.7,30.6h-6.3L661.8,155.6z M653.8,137.1l-5.7,13h11.4
				L653.8,137.1z"/>
		</g>
		<rect x="223.1" y="144.9" class="st7" width="147.5" height="2.3"/>
		<rect x="690.6" y="144.9" class="st7" width="147.5" height="2.3"/>
	</g>
</g>
</svg>
