<svg xmlns="http://www.w3.org/2000/svg" xmlns:xlink="http://www.w3.org/1999/xlink" width="1500" zoomAndPan="magnify" viewBox="0 0 1125 323.249999" height="431" preserveAspectRatio="xMidYMid meet" version="1.0"><path fill="#ffffff" d="M 203.691406 124.941406 L 203.691406 166.46875 C 203.691406 169.359375 204.386719 171.453125 205.785156 172.742188 C 207.179688 174.035156 209.527344 174.679688 212.835938 174.679688 L 222.917969 174.679688 L 222.917969 192.960938 L 209.269531 192.960938 C 190.972656 192.960938 181.828125 184.078125 181.828125 166.3125 L 181.828125 124.941406 L 171.59375 124.941406 L 171.59375 107.128906 L 181.828125 107.128906 L 181.828125 94.476562 L 203.691406 78.382812 L 203.691406 107.132812 L 222.917969 107.132812 L 222.917969 124.945312 L 203.691406 124.945312 Z M 203.691406 124.941406 " fill-opacity="1" fill-rule="nonzero"/><path fill="#ffffff" d="M 271.21875 109.761719 C 275.714844 107.179688 280.855469 105.886719 286.644531 105.886719 L 286.644531 128.664062 L 280.910156 128.664062 C 274.089844 128.664062 268.945312 130.269531 265.480469 133.46875 C 262.015625 136.667969 260.285156 142.25 260.285156 150.203125 L 260.285156 192.960938 L 238.578125 192.960938 L 238.578125 107.128906 L 260.285156 107.128906 L 260.285156 120.453125 C 263.078125 115.910156 266.71875 112.34375 271.21875 109.761719 Z M 271.21875 109.761719 " fill-opacity="1" fill-rule="nonzero"/><path fill="#ffffff" d="M 382.3125 107.128906 L 382.3125 192.960938 L 360.453125 192.960938 L 360.453125 182.117188 C 357.660156 185.832031 354.019531 188.757812 349.519531 190.871094 C 345.023438 192.988281 340.136719 194.050781 334.867188 194.050781 C 328.148438 194.050781 322.203125 192.632812 317.035156 189.789062 C 311.867188 186.945312 307.808594 182.765625 304.863281 177.238281 C 301.917969 171.714844 300.445312 165.128906 300.445312 157.480469 L 300.445312 107.128906 L 322.152344 107.128906 L 322.152344 154.382812 C 322.152344 161.203125 323.859375 166.445312 327.269531 170.109375 C 330.683594 173.777344 335.332031 175.609375 341.226562 175.609375 C 347.222656 175.609375 351.925781 173.777344 355.335938 170.109375 C 358.746094 166.445312 360.457031 161.203125 360.457031 154.382812 L 360.457031 107.128906 Z M 382.3125 107.128906 " fill-opacity="1" fill-rule="nonzero"/><path fill="#ffffff" d="M 452.867188 78.378906 L 452.867188 96.042969 L 434.414062 96.042969 L 434.414062 205.511719 L 452.867188 205.511719 L 452.867188 223.484375 L 413.949219 223.484375 L 413.949219 78.378906 Z M 452.867188 78.378906 " fill-opacity="1" fill-rule="nonzero"/><path fill="#ffffff" d="M 494.734375 190.558594 C 489.152344 188.03125 484.734375 184.59375 481.476562 180.257812 C 478.21875 175.917969 476.4375 171.121094 476.125 165.847656 L 497.988281 165.847656 C 498.398438 169.15625 500.03125 171.894531 502.871094 174.0625 C 505.714844 176.230469 509.253906 177.3125 513.492188 177.3125 C 517.628906 177.3125 520.859375 176.488281 523.1875 174.835938 C 525.507812 173.183594 526.671875 171.066406 526.671875 168.484375 C 526.671875 165.695312 525.25 163.601562 522.410156 162.207031 C 519.566406 160.816406 515.042969 159.292969 508.839844 157.636719 C 502.429688 156.089844 497.1875 154.488281 493.105469 152.832031 C 489.019531 151.1875 485.507812 148.652344 482.558594 145.242188 C 479.613281 141.835938 478.140625 137.242188 478.140625 131.453125 C 478.140625 126.703125 479.507812 122.367188 482.25 118.441406 C 484.988281 114.519531 488.917969 111.417969 494.03125 109.144531 C 499.152344 106.871094 505.171875 105.738281 512.097656 105.738281 C 522.332031 105.738281 530.496094 108.292969 536.597656 113.40625 C 542.695312 118.519531 546.058594 125.414062 546.675781 134.089844 L 525.898438 134.089844 C 525.589844 130.679688 524.167969 127.96875 521.632812 125.953125 C 519.101562 123.9375 515.71875 122.933594 511.480469 122.933594 C 507.550781 122.933594 504.523438 123.65625 502.410156 125.101562 C 500.289062 126.550781 499.230469 128.5625 499.230469 131.144531 C 499.230469 134.035156 500.675781 136.234375 503.570312 137.730469 C 506.460938 139.230469 510.960938 140.75 517.0625 142.300781 C 523.261719 143.847656 528.378906 145.453125 532.414062 147.105469 C 536.445312 148.757812 539.933594 151.3125 542.878906 154.773438 C 545.820312 158.234375 547.347656 162.800781 547.453125 168.484375 C 547.453125 173.4375 546.082031 177.882812 543.34375 181.808594 C 540.601562 185.738281 536.675781 188.808594 531.558594 191.03125 C 526.441406 193.246094 520.472656 194.359375 513.652344 194.359375 C 506.617188 194.355469 500.316406 193.089844 494.734375 190.558594 Z M 494.734375 190.558594 " fill-opacity="1" fill-rule="nonzero"/><path fill="#ffffff" d="M 598.542969 109.6875 C 603.453125 107.050781 609.0625 105.734375 615.367188 105.734375 C 622.707031 105.734375 629.347656 107.542969 635.292969 111.152344 C 641.234375 114.773438 645.9375 119.910156 649.402344 126.570312 C 652.867188 133.238281 654.601562 140.957031 654.601562 149.738281 C 654.601562 158.519531 652.867188 166.289062 649.402344 173.050781 C 645.941406 179.820312 641.234375 185.0625 635.292969 188.78125 C 629.347656 192.496094 622.707031 194.355469 615.367188 194.355469 C 609.0625 194.355469 603.507812 193.0625 598.699219 190.480469 C 593.894531 187.902344 589.988281 184.648438 586.992188 180.722656 L 586.992188 233.863281 L 565.285156 233.863281 L 565.285156 107.128906 L 586.992188 107.128906 L 586.992188 119.523438 C 589.78125 115.597656 593.632812 112.320312 598.542969 109.6875 Z M 629.246094 136.335938 C 627.125 132.5625 624.335938 129.699219 620.875 127.734375 C 617.410156 125.773438 613.660156 124.792969 609.628906 124.792969 C 605.703125 124.792969 602.007812 125.796875 598.542969 127.8125 C 595.078125 129.824219 592.285156 132.746094 590.171875 136.566406 C 588.050781 140.386719 586.992188 144.878906 586.992188 150.042969 C 586.992188 155.210938 588.050781 159.707031 590.171875 163.527344 C 592.289062 167.347656 595.078125 170.265625 598.542969 172.277344 C 602.007812 174.289062 605.703125 175.296875 609.628906 175.296875 C 613.660156 175.296875 617.40625 174.269531 620.875 172.199219 C 624.335938 170.132812 627.128906 167.1875 629.246094 163.363281 C 631.363281 159.550781 632.425781 155 632.425781 149.734375 C 632.425781 144.574219 631.363281 140.105469 629.246094 136.335938 Z M 629.246094 136.335938 " fill-opacity="1" fill-rule="nonzero"/><path fill="#ffffff" d="M 671.886719 93.261719 C 669.351562 90.835938 668.085938 87.816406 668.085938 84.199219 C 668.085938 80.585938 669.351562 77.5625 671.886719 75.136719 C 674.417969 72.710938 677.597656 71.492188 681.425781 71.492188 C 685.242188 71.492188 688.421875 72.710938 690.957031 75.136719 C 693.488281 77.5625 694.757812 80.585938 694.757812 84.199219 C 694.757812 87.816406 693.488281 90.835938 690.957031 93.261719 C 688.421875 95.6875 685.242188 96.902344 681.425781 96.902344 C 677.597656 96.902344 674.417969 95.6875 671.886719 93.261719 Z M 692.121094 107.128906 L 692.121094 192.960938 L 670.414062 192.960938 L 670.414062 107.128906 Z M 692.121094 107.128906 " fill-opacity="1" fill-rule="nonzero"/><path fill="#ffffff" d="M 785.9375 115.574219 C 792.238281 122.03125 795.398438 131.042969 795.398438 142.609375 L 795.398438 192.960938 L 773.6875 192.960938 L 773.6875 145.554688 C 773.6875 138.738281 771.980469 133.496094 768.570312 129.824219 C 765.15625 126.160156 760.503906 124.324219 754.613281 124.324219 C 748.617188 124.324219 743.890625 126.160156 740.425781 129.824219 C 736.960938 133.496094 735.230469 138.738281 735.230469 145.554688 L 735.230469 192.960938 L 713.519531 192.960938 L 713.519531 107.128906 L 735.230469 107.128906 L 735.230469 117.820312 C 738.121094 114.101562 741.820312 111.183594 746.316406 109.0625 C 750.8125 106.949219 755.746094 105.886719 761.121094 105.886719 C 771.359375 105.886719 779.632812 109.117188 785.9375 115.574219 Z M 785.9375 115.574219 " fill-opacity="1" fill-rule="nonzero"/><path fill="#ffffff" d="M 895.253906 156.554688 L 832.453125 156.554688 C 832.96875 162.746094 835.136719 167.605469 838.96875 171.117188 C 842.789062 174.625 847.496094 176.386719 853.078125 176.386719 C 861.140625 176.386719 866.875 172.925781 870.289062 166.003906 L 893.703125 166.003906 C 891.21875 174.269531 886.464844 181.058594 879.433594 186.378906 C 872.402344 191.699219 863.777344 194.355469 853.542969 194.355469 C 845.269531 194.355469 837.855469 192.523438 831.289062 188.855469 C 824.722656 185.191406 819.605469 180 815.9375 173.289062 C 812.265625 166.574219 810.433594 158.824219 810.433594 150.046875 C 810.433594 141.164062 812.238281 133.367188 815.859375 126.652344 C 819.480469 119.941406 824.546875 114.777344 831.054688 111.15625 C 837.570312 107.542969 845.058594 105.738281 853.539062 105.738281 C 861.703125 105.738281 869.015625 107.496094 875.476562 111.003906 C 881.9375 114.519531 886.953125 119.503906 890.519531 125.953125 C 894.085938 132.414062 895.871094 139.820312 895.871094 148.1875 C 895.871094 151.28125 895.664062 154.074219 895.253906 156.554688 Z M 873.386719 141.988281 C 873.285156 136.414062 871.265625 131.945312 867.339844 128.585938 C 863.410156 125.230469 858.605469 123.550781 852.917969 123.550781 C 847.542969 123.550781 843.023438 125.175781 839.351562 128.433594 C 835.683594 131.6875 833.4375 136.203125 832.605469 141.988281 Z M 873.386719 141.988281 " fill-opacity="1" fill-rule="nonzero"/><path fill="#ffffff" d="M 956.964844 223.488281 L 918.042969 223.488281 L 918.042969 205.515625 L 936.492188 205.515625 L 936.492188 96.042969 L 918.042969 96.042969 L 918.042969 78.378906 L 956.964844 78.378906 Z M 956.964844 223.488281 " fill-opacity="1" fill-rule="nonzero"/><path fill="#ffffff" d="M 198.386719 276.8125 L 191.554688 264.945312 L 187.835938 264.945312 L 187.835938 276.8125 L 182.964844 276.8125 L 182.964844 247.148438 L 193.21875 247.148438 C 195.5 247.148438 197.425781 247.542969 199.007812 248.335938 C 200.585938 249.136719 201.769531 250.207031 202.554688 251.539062 C 203.335938 252.878906 203.730469 254.375 203.730469 256.019531 C 203.730469 257.957031 203.167969 259.71875 202.039062 261.292969 C 200.917969 262.871094 199.1875 263.949219 196.851562 264.511719 L 204.199219 276.808594 L 198.386719 276.808594 Z M 187.839844 261.058594 L 193.21875 261.058594 C 195.042969 261.058594 196.417969 260.601562 197.34375 259.695312 C 198.269531 258.785156 198.730469 257.558594 198.730469 256.023438 C 198.730469 254.492188 198.273438 253.285156 197.367188 252.414062 C 196.453125 251.546875 195.070312 251.117188 193.21875 251.117188 L 187.839844 251.117188 Z M 187.839844 261.058594 " fill-opacity="1" fill-rule="nonzero"/><path fill="#ffffff" d="M 238.628906 266.863281 L 220.640625 266.863281 C 220.78125 268.742188 221.480469 270.25 222.734375 271.386719 C 223.988281 272.527344 225.523438 273.097656 227.347656 273.097656 C 229.96875 273.097656 231.820312 272.003906 232.902344 269.808594 L 238.15625 269.808594 C 237.445312 271.972656 236.15625 273.742188 234.289062 275.125 C 232.425781 276.503906 230.109375 277.191406 227.347656 277.191406 C 225.097656 277.191406 223.085938 276.6875 221.304688 275.675781 C 219.523438 274.671875 218.128906 273.25 217.121094 271.410156 C 216.105469 269.578125 215.601562 267.445312 215.601562 265.027344 C 215.601562 262.605469 216.089844 260.480469 217.074219 258.648438 C 218.054688 256.808594 219.4375 255.394531 221.21875 254.398438 C 223 253.402344 225.039062 252.90625 227.347656 252.90625 C 229.570312 252.90625 231.550781 253.390625 233.285156 254.363281 C 235.019531 255.328125 236.375 256.683594 237.347656 258.429688 C 238.3125 260.183594 238.796875 262.195312 238.796875 264.476562 C 238.800781 265.355469 238.742188 266.15625 238.628906 266.863281 Z M 233.714844 262.9375 C 233.6875 261.144531 233.046875 259.703125 231.792969 258.621094 C 230.539062 257.546875 228.988281 257.003906 227.136719 257.003906 C 225.457031 257.003906 224.019531 257.53125 222.820312 258.601562 C 221.625 259.671875 220.914062 261.117188 220.6875 262.9375 Z M 233.714844 262.9375 " fill-opacity="1" fill-rule="nonzero"/><path fill="#ffffff" d="M 250.695312 258.664062 C 251.675781 256.851562 253.015625 255.433594 254.710938 254.425781 C 256.402344 253.410156 258.277344 252.90625 260.328125 252.90625 C 262.179688 252.90625 263.792969 253.269531 265.175781 253.992188 C 266.554688 254.71875 267.664062 255.621094 268.484375 256.707031 L 268.484375 253.292969 L 273.398438 253.292969 L 273.398438 276.8125 L 268.484375 276.8125 L 268.484375 273.3125 C 267.660156 274.417969 266.53125 275.347656 265.109375 276.085938 C 263.6875 276.824219 262.0625 277.191406 260.242188 277.191406 C 258.21875 277.191406 256.371094 276.675781 254.6875 275.636719 C 253.007812 274.597656 251.675781 273.144531 250.695312 271.28125 C 249.710938 269.417969 249.222656 267.304688 249.222656 264.941406 C 249.222656 262.582031 249.710938 260.492188 250.695312 258.664062 Z M 267.480469 260.804688 C 266.8125 259.609375 265.9375 258.699219 264.855469 258.070312 C 263.769531 257.449219 262.605469 257.136719 261.351562 257.136719 C 260.097656 257.136719 258.933594 257.4375 257.847656 258.054688 C 256.765625 258.660156 255.890625 259.558594 255.21875 260.738281 C 254.554688 261.921875 254.214844 263.320312 254.214844 264.945312 C 254.214844 266.570312 254.550781 267.988281 255.21875 269.210938 C 255.890625 270.433594 256.773438 271.367188 257.871094 272.007812 C 258.96875 272.648438 260.128906 272.96875 261.351562 272.96875 C 262.605469 272.96875 263.769531 272.65625 264.855469 272.027344 C 265.9375 271.40625 266.8125 270.484375 267.480469 269.277344 C 268.148438 268.066406 268.484375 266.652344 268.484375 265.03125 C 268.484375 263.410156 268.148438 262 267.480469 260.804688 Z M 267.480469 260.804688 " fill-opacity="1" fill-rule="nonzero"/><path fill="#ffffff" d="M 287.066406 245.226562 L 291.9375 245.226562 L 291.9375 276.8125 L 287.066406 276.8125 Z M 287.066406 245.226562 " fill-opacity="1" fill-rule="nonzero"/><path fill="#ffffff" d="M 343.667969 260.246094 C 342.953125 261.585938 341.816406 262.675781 340.246094 263.511719 C 338.683594 264.351562 336.671875 264.773438 334.222656 264.773438 L 328.84375 264.773438 L 328.84375 276.8125 L 323.972656 276.8125 L 323.972656 247.148438 L 334.222656 247.148438 C 336.503906 247.148438 338.433594 247.539062 340.015625 248.320312 C 341.59375 249.101562 342.773438 250.164062 343.558594 251.5 C 344.339844 252.839844 344.734375 254.335938 344.734375 255.980469 C 344.734375 257.488281 344.378906 258.910156 343.667969 260.246094 Z M 338.371094 259.546875 C 339.28125 258.703125 339.734375 257.515625 339.734375 255.980469 C 339.734375 252.738281 337.898438 251.117188 334.222656 251.117188 L 328.84375 251.117188 L 328.84375 260.804688 L 334.222656 260.804688 C 336.078125 260.804688 337.457031 260.382812 338.371094 259.546875 Z M 338.371094 259.546875 " fill-opacity="1" fill-rule="nonzero"/><path fill="#ffffff" d="M 356.503906 258.664062 C 357.484375 256.851562 358.824219 255.433594 360.519531 254.425781 C 362.210938 253.410156 364.085938 252.90625 366.136719 252.90625 C 367.988281 252.90625 369.601562 253.269531 370.984375 253.992188 C 372.363281 254.71875 373.472656 255.621094 374.292969 256.707031 L 374.292969 253.292969 L 379.207031 253.292969 L 379.207031 276.8125 L 374.292969 276.8125 L 374.292969 273.3125 C 373.46875 274.417969 372.34375 275.347656 370.917969 276.085938 C 369.496094 276.824219 367.875 277.191406 366.054688 277.191406 C 364.027344 277.191406 362.179688 276.675781 360.5 275.636719 C 358.820312 274.597656 357.484375 273.144531 356.507812 271.28125 C 355.523438 269.417969 355.03125 267.304688 355.03125 264.941406 C 355.03125 262.582031 355.519531 260.492188 356.503906 258.664062 Z M 373.289062 260.804688 C 372.621094 259.609375 371.746094 258.699219 370.664062 258.070312 C 369.578125 257.449219 368.414062 257.136719 367.160156 257.136719 C 365.90625 257.136719 364.738281 257.4375 363.65625 258.054688 C 362.574219 258.660156 361.699219 259.558594 361.027344 260.738281 C 360.363281 261.921875 360.023438 263.320312 360.023438 264.945312 C 360.023438 266.570312 360.359375 267.988281 361.027344 269.210938 C 361.699219 270.433594 362.582031 271.367188 363.679688 272.007812 C 364.777344 272.648438 365.9375 272.96875 367.160156 272.96875 C 368.414062 272.96875 369.578125 272.65625 370.664062 272.027344 C 371.746094 271.40625 372.621094 270.484375 373.289062 269.277344 C 373.957031 268.066406 374.292969 266.652344 374.292969 265.03125 C 374.292969 263.410156 373.957031 262 373.289062 260.804688 Z M 373.289062 260.804688 " fill-opacity="1" fill-rule="nonzero"/><path fill="#ffffff" d="M 393.132812 249.277344 C 392.53125 248.683594 392.230469 247.945312 392.230469 247.058594 C 392.230469 246.179688 392.53125 245.441406 393.132812 244.835938 C 393.726562 244.242188 394.472656 243.9375 395.351562 243.9375 C 396.207031 243.9375 396.933594 244.242188 397.53125 244.835938 C 398.128906 245.441406 398.429688 246.179688 398.429688 247.058594 C 398.429688 247.945312 398.128906 248.679688 397.53125 249.277344 C 396.933594 249.875 396.207031 250.175781 395.351562 250.175781 C 394.472656 250.175781 393.726562 249.875 393.132812 249.277344 Z M 397.742188 253.292969 L 397.742188 276.8125 L 392.871094 276.8125 L 392.871094 253.292969 Z M 397.742188 253.292969 " fill-opacity="1" fill-rule="nonzero"/><path fill="#ffffff" d="M 428.265625 254.0625 C 429.730469 254.828125 430.882812 255.96875 431.707031 257.472656 C 432.53125 258.980469 432.945312 260.804688 432.945312 262.9375 L 432.945312 276.808594 L 428.117188 276.808594 L 428.117188 263.664062 C 428.117188 261.554688 427.589844 259.945312 426.539062 258.816406 C 425.484375 257.691406 424.042969 257.132812 422.222656 257.132812 C 420.398438 257.132812 418.957031 257.691406 417.886719 258.816406 C 416.820312 259.941406 416.285156 261.554688 416.285156 263.664062 L 416.285156 276.808594 L 411.414062 276.808594 L 411.414062 253.292969 L 416.285156 253.292969 L 416.285156 255.976562 C 417.082031 255.011719 418.101562 254.257812 419.339844 253.714844 C 420.578125 253.179688 421.894531 252.902344 423.289062 252.902344 C 425.140625 252.90625 426.800781 253.292969 428.265625 254.0625 Z M 428.265625 254.0625 " fill-opacity="1" fill-rule="nonzero"/><path fill="#ffffff" d="M 480.183594 276.8125 L 473.351562 264.945312 L 469.632812 264.945312 L 469.632812 276.8125 L 464.761719 276.8125 L 464.761719 247.148438 L 475.015625 247.148438 C 477.296875 247.148438 479.222656 247.542969 480.804688 248.335938 C 482.382812 249.136719 483.566406 250.207031 484.351562 251.539062 C 485.132812 252.878906 485.527344 254.375 485.527344 256.019531 C 485.527344 257.957031 484.964844 259.71875 483.835938 261.292969 C 482.714844 262.871094 480.984375 263.949219 478.648438 264.511719 L 485.996094 276.808594 L 480.183594 276.808594 Z M 469.636719 261.058594 L 475.015625 261.058594 C 476.839844 261.058594 478.214844 260.601562 479.140625 259.695312 C 480.066406 258.785156 480.527344 257.558594 480.527344 256.023438 C 480.527344 254.492188 480.070312 253.285156 479.164062 252.414062 C 478.25 251.546875 476.867188 251.117188 475.015625 251.117188 L 469.636719 251.117188 Z M 469.636719 261.058594 " fill-opacity="1" fill-rule="nonzero"/><path fill="#ffffff" d="M 520.425781 266.863281 L 502.4375 266.863281 C 502.578125 268.742188 503.277344 270.25 504.53125 271.386719 C 505.785156 272.527344 507.320312 273.097656 509.144531 273.097656 C 511.765625 273.097656 513.617188 272.003906 514.699219 269.808594 L 519.953125 269.808594 C 519.242188 271.972656 517.953125 273.742188 516.085938 275.125 C 514.222656 276.503906 511.90625 277.191406 509.144531 277.191406 C 506.894531 277.191406 504.882812 276.6875 503.101562 275.675781 C 501.320312 274.671875 499.925781 273.25 498.917969 271.410156 C 497.902344 269.578125 497.398438 267.445312 497.398438 265.027344 C 497.398438 262.605469 497.886719 260.480469 498.871094 258.648438 C 499.851562 256.808594 501.234375 255.394531 503.015625 254.398438 C 504.796875 253.402344 506.835938 252.90625 509.144531 252.90625 C 511.367188 252.90625 513.347656 253.390625 515.082031 254.363281 C 516.816406 255.328125 518.171875 256.683594 519.144531 258.429688 C 520.109375 260.183594 520.59375 262.195312 520.59375 264.476562 C 520.597656 265.355469 520.539062 266.15625 520.425781 266.863281 Z M 515.511719 262.9375 C 515.484375 261.144531 514.84375 259.703125 513.589844 258.621094 C 512.335938 257.546875 510.785156 257.003906 508.933594 257.003906 C 507.253906 257.003906 505.816406 257.53125 504.617188 258.601562 C 503.421875 259.671875 502.710938 261.117188 502.484375 262.9375 Z M 515.511719 262.9375 " fill-opacity="1" fill-rule="nonzero"/><path fill="#ffffff" d="M 532.640625 245.226562 L 537.511719 245.226562 L 537.511719 276.8125 L 532.640625 276.8125 Z M 532.640625 245.226562 " fill-opacity="1" fill-rule="nonzero"/><path fill="#ffffff" d="M 551.4375 249.277344 C 550.835938 248.683594 550.539062 247.945312 550.539062 247.058594 C 550.539062 246.179688 550.835938 245.441406 551.4375 244.835938 C 552.035156 244.242188 552.777344 243.9375 553.660156 243.9375 C 554.511719 243.9375 555.238281 244.242188 555.839844 244.835938 C 556.433594 245.441406 556.734375 246.179688 556.734375 247.058594 C 556.734375 247.945312 556.433594 248.679688 555.839844 249.277344 C 555.238281 249.875 554.511719 250.175781 553.660156 250.175781 C 552.777344 250.175781 552.035156 249.875 551.4375 249.277344 Z M 556.046875 253.292969 L 556.046875 276.8125 L 551.179688 276.8125 L 551.179688 253.292969 Z M 556.046875 253.292969 " fill-opacity="1" fill-rule="nonzero"/><path fill="#ffffff" d="M 591.121094 266.863281 L 573.136719 266.863281 C 573.277344 268.742188 573.976562 270.25 575.230469 271.386719 C 576.484375 272.527344 578.019531 273.097656 579.84375 273.097656 C 582.464844 273.097656 584.316406 272.003906 585.398438 269.808594 L 590.648438 269.808594 C 589.941406 271.972656 588.652344 273.742188 586.785156 275.125 C 584.921875 276.503906 582.605469 277.191406 579.84375 277.191406 C 577.59375 277.191406 575.582031 276.6875 573.800781 275.675781 C 572.019531 274.671875 570.625 273.25 569.613281 271.410156 C 568.601562 269.578125 568.097656 267.445312 568.097656 265.027344 C 568.097656 262.605469 568.585938 260.480469 569.570312 258.648438 C 570.550781 256.808594 571.933594 255.394531 573.710938 254.398438 C 575.492188 253.402344 577.535156 252.90625 579.84375 252.90625 C 582.066406 252.90625 584.042969 253.390625 585.78125 254.363281 C 587.515625 255.328125 588.871094 256.683594 589.839844 258.429688 C 590.808594 260.183594 591.292969 262.195312 591.292969 264.476562 C 591.296875 265.355469 591.234375 266.15625 591.121094 266.863281 Z M 586.207031 262.9375 C 586.179688 261.144531 585.542969 259.703125 584.289062 258.621094 C 583.03125 257.546875 581.480469 257.003906 579.628906 257.003906 C 577.949219 257.003906 576.515625 257.53125 575.316406 258.601562 C 574.121094 259.671875 573.410156 261.117188 573.179688 262.9375 Z M 586.207031 262.9375 " fill-opacity="1" fill-rule="nonzero"/><path fill="#ffffff" d="M 613.203125 257.257812 L 608.847656 257.257812 L 608.847656 276.808594 L 603.933594 276.808594 L 603.933594 257.257812 L 601.160156 257.257812 L 601.160156 253.292969 L 603.933594 253.292969 L 603.933594 251.625 C 603.933594 248.917969 604.652344 246.949219 606.09375 245.71875 C 607.527344 244.472656 609.785156 243.859375 612.863281 243.859375 L 612.863281 247.914062 C 611.382812 247.914062 610.339844 248.195312 609.746094 248.742188 C 609.144531 249.304688 608.847656 250.261719 608.847656 251.625 L 608.847656 253.292969 L 613.203125 253.292969 Z M 613.203125 257.257812 " fill-opacity="1" fill-rule="nonzero"/><path fill="#ffffff" d="M 624.523438 276.214844 C 623.925781 275.613281 623.625 274.875 623.625 273.996094 C 623.625 273.113281 623.925781 272.371094 624.523438 271.773438 C 625.121094 271.171875 625.859375 270.875 626.746094 270.875 C 627.601562 270.875 628.328125 271.171875 628.921875 271.773438 C 629.519531 272.371094 629.824219 273.113281 629.824219 273.996094 C 629.824219 274.875 629.519531 275.613281 628.921875 276.214844 C 628.328125 276.8125 627.601562 277.105469 626.746094 277.105469 C 625.859375 277.105469 625.121094 276.8125 624.523438 276.214844 Z M 624.523438 276.214844 " fill-opacity="1" fill-rule="nonzero"/><path fill="#ffffff" d="M 679.882812 247.148438 L 679.882812 251.117188 L 671.984375 251.117188 L 671.984375 276.8125 L 667.113281 276.8125 L 667.113281 251.117188 L 659.167969 251.117188 L 659.167969 247.148438 Z M 679.882812 247.148438 " fill-opacity="1" fill-rule="nonzero"/><path fill="#ffffff" d="M 699.765625 253.90625 C 700.949219 253.246094 702.351562 252.90625 703.976562 252.90625 L 703.976562 257.941406 L 702.734375 257.941406 C 700.828125 257.941406 699.378906 258.425781 698.402344 259.390625 C 697.417969 260.363281 696.925781 262.039062 696.925781 264.429688 L 696.925781 276.808594 L 692.058594 276.808594 L 692.058594 253.289062 L 696.925781 253.289062 L 696.925781 256.703125 C 697.640625 255.511719 698.585938 254.578125 699.765625 253.90625 Z M 699.765625 253.90625 " fill-opacity="1" fill-rule="nonzero"/><path fill="#ffffff" d="M 737.039062 253.292969 L 737.039062 276.8125 L 732.171875 276.8125 L 732.171875 274.039062 C 731.402344 275.003906 730.394531 275.765625 729.15625 276.320312 C 727.917969 276.875 726.601562 277.152344 725.207031 277.152344 C 723.355469 277.152344 721.695312 276.769531 720.230469 276 C 718.761719 275.234375 717.609375 274.09375 716.769531 272.582031 C 715.929688 271.074219 715.507812 269.253906 715.507812 267.121094 L 715.507812 253.292969 L 720.339844 253.292969 L 720.339844 266.394531 C 720.339844 268.5 720.863281 270.113281 721.914062 271.242188 C 722.972656 272.367188 724.410156 272.925781 726.234375 272.925781 C 728.054688 272.925781 729.5 272.367188 730.566406 271.242188 C 731.636719 270.117188 732.171875 268.5 732.171875 266.394531 L 732.171875 253.292969 Z M 737.039062 253.292969 " fill-opacity="1" fill-rule="nonzero"/><path fill="#ffffff" d="M 772.109375 266.863281 L 754.125 266.863281 C 754.265625 268.742188 754.964844 270.25 756.21875 271.386719 C 757.46875 272.527344 759.007812 273.097656 760.832031 273.097656 C 763.449219 273.097656 765.304688 272.003906 766.386719 269.808594 L 771.640625 269.808594 C 770.925781 271.972656 769.640625 273.742188 767.773438 275.125 C 765.910156 276.503906 763.59375 277.191406 760.832031 277.191406 C 758.582031 277.191406 756.570312 276.6875 754.785156 275.675781 C 753.007812 274.671875 751.609375 273.25 750.601562 271.410156 C 749.59375 269.578125 749.085938 267.445312 749.085938 265.027344 C 749.085938 262.605469 749.574219 260.480469 750.558594 258.648438 C 751.542969 256.808594 752.921875 255.394531 754.699219 254.398438 C 756.484375 253.402344 758.523438 252.90625 760.832031 252.90625 C 763.054688 252.90625 765.03125 253.390625 766.769531 254.363281 C 768.507812 255.328125 769.859375 256.683594 770.828125 258.429688 C 771.796875 260.183594 772.28125 262.195312 772.28125 264.476562 C 772.28125 265.355469 772.222656 266.15625 772.109375 266.863281 Z M 767.199219 262.9375 C 767.167969 261.144531 766.53125 259.703125 765.277344 258.621094 C 764.023438 257.546875 762.472656 257.003906 760.617188 257.003906 C 758.9375 257.003906 757.503906 257.53125 756.304688 258.601562 C 755.109375 259.671875 754.398438 261.117188 754.167969 262.9375 Z M 767.199219 262.9375 " fill-opacity="1" fill-rule="nonzero"/><path fill="#ffffff" d="M 803.097656 254.101562 C 804.453125 251.796875 806.289062 249.996094 808.609375 248.699219 C 810.925781 247.410156 813.46875 246.761719 816.234375 246.761719 C 819.394531 246.761719 822.207031 247.535156 824.671875 249.085938 C 827.132812 250.632812 828.921875 252.835938 830.03125 255.675781 L 824.179688 255.675781 C 823.410156 254.117188 822.34375 252.945312 820.980469 252.179688 C 819.609375 251.410156 818.03125 251.027344 816.234375 251.027344 C 814.269531 251.027344 812.519531 251.472656 810.980469 252.351562 C 809.445312 253.238281 808.242188 254.503906 807.375 256.152344 C 806.5 257.800781 806.070312 259.722656 806.070312 261.914062 C 806.070312 264.101562 806.5 266.027344 807.375 267.671875 C 808.242188 269.328125 809.441406 270.601562 810.980469 271.492188 C 812.519531 272.390625 814.269531 272.839844 816.234375 272.839844 C 818.03125 272.839844 819.609375 272.457031 820.980469 271.6875 C 822.34375 270.921875 823.410156 269.75 824.179688 268.183594 L 830.03125 268.183594 C 828.921875 271.027344 827.132812 273.222656 824.671875 274.761719 C 822.207031 276.292969 819.394531 277.0625 816.234375 277.0625 C 813.441406 277.0625 810.894531 276.417969 808.585938 275.125 C 806.28125 273.828125 804.449219 272.027344 803.097656 269.722656 C 801.742188 267.421875 801.070312 264.816406 801.070312 261.914062 C 801.070312 259.011719 801.746094 256.410156 803.097656 254.101562 Z M 803.097656 254.101562 " fill-opacity="1" fill-rule="nonzero"/><path fill="#ffffff" d="M 842.824219 258.664062 C 843.808594 256.851562 845.144531 255.433594 846.839844 254.425781 C 848.535156 253.410156 850.40625 252.90625 852.460938 252.90625 C 854.308594 252.90625 855.921875 253.269531 857.304688 253.992188 C 858.6875 254.71875 859.792969 255.621094 860.617188 256.707031 L 860.617188 253.292969 L 865.53125 253.292969 L 865.53125 276.8125 L 860.617188 276.8125 L 860.617188 273.3125 C 859.789062 274.417969 858.664062 275.347656 857.242188 276.085938 C 855.820312 276.824219 854.195312 277.191406 852.375 277.191406 C 850.351562 277.191406 848.5 276.675781 846.820312 275.636719 C 845.140625 274.597656 843.808594 273.144531 842.828125 271.28125 C 841.84375 269.417969 841.355469 267.304688 841.355469 264.941406 C 841.355469 262.582031 841.839844 260.492188 842.824219 258.664062 Z M 859.613281 260.804688 C 858.941406 259.609375 858.066406 258.699219 856.984375 258.070312 C 855.902344 257.449219 854.738281 257.136719 853.484375 257.136719 C 852.226562 257.136719 851.0625 257.4375 849.980469 258.054688 C 848.894531 258.660156 848.023438 259.558594 847.351562 260.738281 C 846.683594 261.921875 846.347656 263.320312 846.347656 264.945312 C 846.347656 266.570312 846.683594 267.988281 847.351562 269.210938 C 848.023438 270.433594 848.902344 271.367188 850 272.007812 C 851.097656 272.648438 852.257812 272.96875 853.484375 272.96875 C 854.738281 272.96875 855.898438 272.65625 856.984375 272.027344 C 858.066406 271.40625 858.941406 270.484375 859.613281 269.277344 C 860.28125 268.066406 860.617188 266.652344 860.617188 265.03125 C 860.617188 263.410156 860.28125 262 859.613281 260.804688 Z M 859.613281 260.804688 " fill-opacity="1" fill-rule="nonzero"/><path fill="#ffffff" d="M 886.910156 253.90625 C 888.09375 253.246094 889.492188 252.90625 891.121094 252.90625 L 891.121094 257.941406 L 889.875 257.941406 C 887.96875 257.941406 886.523438 258.425781 885.542969 259.390625 C 884.558594 260.363281 884.066406 262.039062 884.066406 264.429688 L 884.066406 276.808594 L 879.199219 276.808594 L 879.199219 253.289062 L 884.066406 253.289062 L 884.066406 256.703125 C 884.78125 255.511719 885.726562 254.578125 886.910156 253.90625 Z M 886.910156 253.90625 " fill-opacity="1" fill-rule="nonzero"/><path fill="#ffffff" d="M 924.261719 266.863281 L 906.28125 266.863281 C 906.421875 268.742188 907.117188 270.25 908.371094 271.386719 C 909.621094 272.527344 911.160156 273.097656 912.988281 273.097656 C 915.601562 273.097656 917.453125 272.003906 918.539062 269.808594 L 923.792969 269.808594 C 923.078125 271.972656 921.792969 273.742188 919.929688 275.125 C 918.0625 276.503906 915.746094 277.191406 912.988281 277.191406 C 910.734375 277.191406 908.722656 276.6875 906.9375 275.675781 C 905.160156 274.671875 903.761719 273.25 902.753906 271.410156 C 901.746094 269.578125 901.238281 267.445312 901.238281 265.027344 C 901.238281 262.605469 901.722656 260.480469 902.710938 258.648438 C 903.695312 256.808594 905.074219 255.394531 906.851562 254.398438 C 908.636719 253.402344 910.679688 252.90625 912.988281 252.90625 C 915.207031 252.90625 917.183594 253.390625 918.925781 254.363281 C 920.660156 255.328125 922.015625 256.683594 922.980469 258.429688 C 923.945312 260.183594 924.429688 262.195312 924.429688 264.476562 C 924.433594 265.355469 924.378906 266.15625 924.261719 266.863281 Z M 919.351562 262.9375 C 919.320312 261.144531 918.679688 259.703125 917.429688 258.621094 C 916.175781 257.546875 914.625 257.003906 912.773438 257.003906 C 911.09375 257.003906 909.652344 257.53125 908.457031 258.601562 C 907.257812 259.671875 906.550781 261.117188 906.320312 262.9375 Z M 919.351562 262.9375 " fill-opacity="1" fill-rule="nonzero"/><path fill="#ffffff" d="M 936.222656 276.214844 C 935.625 275.613281 935.324219 274.875 935.324219 273.996094 C 935.324219 273.113281 935.625 272.371094 936.222656 271.773438 C 936.820312 271.171875 937.566406 270.875 938.445312 270.875 C 939.300781 270.875 940.027344 271.171875 940.625 271.773438 C 941.21875 272.371094 941.523438 273.113281 941.523438 273.996094 C 941.523438 274.875 941.21875 275.613281 940.625 276.214844 C 940.027344 276.8125 939.300781 277.105469 938.445312 277.105469 C 937.566406 277.105469 936.820312 276.8125 936.222656 276.214844 Z M 936.222656 276.214844 " fill-opacity="1" fill-rule="nonzero"/></svg>