<svg xmlns="http://www.w3.org/2000/svg" xmlns:xlink="http://www.w3.org/1999/xlink" width="350" zoomAndPan="magnify" viewBox="0 0 262.5 74.999997" height="100" preserveAspectRatio="xMidYMid meet" version="1.0"><defs><clipPath id="8126e36300"><path d="M 26.125 4.984375 L 81 4.984375 L 81 70.109375 L 26.125 70.109375 Z M 26.125 4.984375 " clip-rule="nonzero"/></clipPath><clipPath id="77fa51491a"><path d="M 107 4.984375 L 117 4.984375 L 117 15 L 107 15 Z M 107 4.984375 " clip-rule="nonzero"/></clipPath><clipPath id="75a5a4c5d2"><path d="M 194 16 L 235.835938 16 L 235.835938 59 L 194 59 Z M 194 16 " clip-rule="nonzero"/></clipPath><clipPath id="f31b70ef08"><path d="M 86 18 L 116 18 L 116 70.109375 L 86 70.109375 Z M 86 18 " clip-rule="nonzero"/></clipPath></defs><path fill="#ffffff" d="M 222.605469 7.289062 L 221.121094 7.289062 L 221.121094 6.421875 L 224.984375 6.421875 L 224.984375 7.109375 L 223.496094 7.109375 L 223.496094 11.246094 L 222.695312 11.246094 L 222.695312 7.289062 Z M 222.605469 7.289062 " fill-opacity="1" fill-rule="nonzero"/><path fill="#ffffff" d="M 229.675781 11.25 L 229.675781 8.15625 L 228.1875 10.738281 L 227.875 10.738281 L 226.390625 8.15625 L 226.390625 11.25 L 225.585938 11.25 L 225.585938 6.441406 L 226.226562 6.441406 L 227.992188 9.546875 L 229.761719 6.441406 L 230.410156 6.441406 L 230.410156 11.25 L 229.671875 11.25 Z M 229.675781 11.25 " fill-opacity="1" fill-rule="nonzero"/><g clip-path="url(#8126e36300)"><path fill="#ffffff" d="M 80.277344 66.597656 C 80.277344 65.332031 79.40625 64.226562 78.1875 63.980469 C 69.265625 62.15625 61.746094 55.644531 58.667969 46.640625 L 57.648438 43.871094 C 56.609375 41.046875 54.808594 38.65625 52.546875 36.894531 C 57.15625 33.765625 60.199219 28.410156 60.179688 22.339844 C 60.152344 12.789062 52.15625 4.984375 42.8125 4.984375 L 28.746094 4.984375 C 27.300781 4.984375 26.125 6.183594 26.125 7.664062 L 26.125 54.800781 C 26.125 56.28125 27.300781 57.480469 28.746094 57.480469 L 29.542969 57.480469 C 30.988281 57.480469 32.164062 56.28125 32.164062 54.800781 L 32.164062 39.792969 L 43.148438 39.792969 C 47.082031 39.792969 50.601562 42.285156 51.988281 46.046875 L 52.972656 48.714844 C 56.789062 59.824219 66.09375 67.84375 77.117188 70.054688 C 78.75 70.386719 80.277344 69.136719 80.277344 67.433594 Z M 43.152344 33.621094 L 32.167969 33.621094 L 32.167969 11.164062 L 43.152344 11.164062 C 49.210938 11.164062 54.136719 16.199219 54.136719 22.390625 C 54.136719 28.578125 49.210938 33.617188 43.152344 33.617188 Z M 43.152344 33.621094 " fill-opacity="1" fill-rule="nonzero"/></g><g clip-path="url(#77fa51491a)"><path fill="#ffffff" d="M 112.414062 14.183594 C 114.898438 14.183594 116.910156 12.125 116.910156 9.582031 C 116.910156 7.042969 114.898438 4.984375 112.414062 4.984375 C 109.929688 4.984375 107.914062 7.042969 107.914062 9.582031 C 107.914062 12.125 109.929688 14.183594 112.414062 14.183594 Z M 112.414062 14.183594 " fill-opacity="1" fill-rule="nonzero"/></g><path fill="#ffffff" d="M 95.304688 50.097656 C 94.402344 49.175781 92.964844 49.027344 91.941406 49.800781 C 89.453125 51.683594 86.449219 52.703125 83.300781 52.703125 C 76.308594 52.703125 70.453125 47.636719 69.058594 40.914062 L 101.277344 40.914062 C 102.722656 40.914062 103.898438 39.714844 103.898438 38.238281 C 103.898438 26.636719 94.882812 16.90625 83.53125 16.777344 C 71.539062 16.640625 61.84375 27.03125 62.757812 39.449219 C 63.53125 49.945312 71.988281 58.351562 82.273438 58.855469 C 87.132812 59.09375 91.789062 57.628906 95.585938 54.726562 C 96.867188 53.75 97 51.835938 95.871094 50.679688 L 95.300781 50.097656 Z M 83.300781 22.949219 C 90.289062 22.949219 96.144531 28.011719 97.542969 34.738281 L 69.0625 34.738281 C 70.453125 28.007812 76.308594 22.949219 83.304688 22.949219 Z M 83.300781 22.949219 " fill-opacity="1" fill-rule="nonzero"/><g clip-path="url(#75a5a4c5d2)"><path fill="#ffffff" d="M 235.835938 37.832031 C 235.835938 25.722656 225.78125 15.96875 213.761719 16.828125 C 203.617188 17.554688 195.398438 25.953125 194.6875 36.324219 C 193.847656 48.609375 203.390625 58.882812 215.234375 58.882812 C 219.71875 58.882812 223.984375 57.429688 227.515625 54.742188 C 228.800781 53.761719 228.953125 51.84375 227.8125 50.6875 L 227.242188 50.101562 C 226.339844 49.179688 224.902344 49.03125 223.878906 49.804688 C 221.390625 51.691406 218.386719 52.707031 215.234375 52.707031 C 208.246094 52.707031 202.390625 47.644531 200.992188 40.917969 L 233.214844 40.917969 C 234.660156 40.917969 235.835938 39.71875 235.835938 38.242188 Z M 201 34.742188 C 202.390625 28.015625 208.246094 22.953125 215.242188 22.953125 C 222.234375 22.953125 228.085938 28.019531 229.484375 34.742188 Z M 201 34.742188 " fill-opacity="1" fill-rule="nonzero"/></g><path fill="#ffffff" d="M 149.480469 41.199219 C 149.480469 47.691406 144.191406 52.945312 137.785156 52.699219 C 131.695312 52.460938 126.957031 47.148438 126.957031 40.914062 L 126.957031 20.855469 C 126.957031 19.378906 125.785156 18.179688 124.339844 18.179688 L 123.539062 18.179688 C 122.09375 18.179688 120.917969 19.378906 120.917969 20.855469 L 120.917969 40.824219 C 120.917969 50.445312 128.289062 58.59375 137.695312 58.878906 C 147.476562 59.175781 155.523438 51.132812 155.523438 41.203125 L 155.523438 20.859375 C 155.523438 19.382812 154.347656 18.183594 152.902344 18.183594 L 152.105469 18.183594 C 150.660156 18.183594 149.484375 19.382812 149.484375 20.859375 L 149.484375 41.203125 Z M 149.480469 41.199219 " fill-opacity="1" fill-rule="nonzero"/><path fill="#ffffff" d="M 197.613281 18.171875 C 201.757812 14.292969 207.089844 11.808594 212.867188 11.269531 C 214.210938 11.144531 215.242188 9.988281 215.242188 8.605469 L 215.242188 7.785156 C 215.242188 6.214844 213.925781 4.976562 212.398438 5.113281 C 203.203125 5.949219 194.898438 10.789062 189.492188 18.171875 C 187.570312 20.796875 186.015625 23.742188 184.917969 26.941406 L 176.046875 51.042969 L 164.578125 19.90625 C 164.195312 18.863281 163.21875 18.171875 162.125 18.171875 L 161.273438 18.171875 C 159.441406 18.171875 158.175781 20.042969 158.816406 21.796875 L 171.3125 55.746094 C 171.699219 56.789062 172.675781 57.480469 173.769531 57.480469 L 178.320312 57.480469 C 179.414062 57.480469 180.386719 56.785156 180.777344 55.746094 L 190.613281 29.023438 C 192.066406 24.777344 194.511719 21.078125 197.621094 18.171875 Z M 197.613281 18.171875 " fill-opacity="1" fill-rule="nonzero"/><g clip-path="url(#f31b70ef08)"><path fill="#ffffff" d="M 109.390625 37.832031 C 109.390625 50.75 100.351562 61.550781 88.402344 63.980469 C 87.1875 64.226562 86.320312 65.335938 86.320312 66.597656 L 86.320312 67.433594 C 86.320312 69.128906 87.84375 70.386719 89.472656 70.058594 C 104.246094 67.105469 115.429688 53.78125 115.429688 37.828125 L 115.429688 20.851562 C 115.429688 19.375 114.257812 18.175781 112.8125 18.175781 L 112.011719 18.175781 C 110.566406 18.175781 109.390625 19.375 109.390625 20.851562 Z M 109.390625 37.832031 " fill-opacity="1" fill-rule="nonzero"/></g></svg>